<?xml version="1.0" encoding="UTF-8" standalone="no"?>
<!DOCTYPE svg PUBLIC "-//W3C//DTD SVG 1.1//EN"
 "http://www.w3.org/Graphics/SVG/1.1/DTD/svg11.dtd">
<!-- Generated by graphviz version 2.43.0 (0)
 -->
<!-- Title: dependencies Pages: 1 -->
<svg width="1928pt" height="437pt"
 viewBox="0.00 0.00 1928.37 437.00" xmlns="http://www.w3.org/2000/svg" xmlns:xlink="http://www.w3.org/1999/xlink">
<g id="graph0" class="graph" transform="scale(1 1) rotate(0) translate(4 433)">
<title>dependencies</title>
<polygon fill="white" stroke="transparent" points="-4,4 -4,-433 1924.37,-433 1924.37,4 -4,4"/>
<g id="clust1" class="cluster">
<title>cluster_core</title>
<polygon fill="none" stroke="#cccccc" stroke-dasharray="5,2" points="864.38,-8 864.38,-227 1242.38,-227 1242.38,-8 864.38,-8"/>
<text text-anchor="middle" x="1053.38" y="-211.8" font-family="Times,serif" font-size="14.00">Core</text>
</g>
<g id="clust2" class="cluster">
<title>cluster_platforms</title>
<polygon fill="none" stroke="#cccccc" stroke-dasharray="5,2" points="629.38,-152 629.38,-310 856.38,-310 856.38,-152 629.38,-152"/>
<text text-anchor="middle" x="742.88" y="-294.8" font-family="Times,serif" font-size="14.00">Platforms</text>
</g>
<g id="clust3" class="cluster">
<title>cluster_blog</title>
<polygon fill="none" stroke="#cccccc" stroke-dasharray="5,2" points="22.38,-152 22.38,-385 331.38,-385 331.38,-152 22.38,-152"/>
<text text-anchor="middle" x="176.88" y="-369.8" font-family="Times,serif" font-size="14.00">Blog</text>
</g>
<g id="clust4" class="cluster">
<title>cluster_social</title>
<polygon fill="none" stroke="#cccccc" stroke-dasharray="5,2" points="339.38,-235 339.38,-385 589.38,-385 589.38,-235 339.38,-235"/>
<text text-anchor="middle" x="464.38" y="-369.8" font-family="Times,serif" font-size="14.00">Social</text>
</g>
<g id="clust5" class="cluster">
<title>cluster_automation</title>
<polygon fill="none" stroke="#cccccc" stroke-dasharray="5,2" points="1046.38,-235 1046.38,-385 1889.38,-385 1889.38,-235 1046.38,-235"/>
<text text-anchor="middle" x="1467.88" y="-369.8" font-family="Times,serif" font-size="14.00">Automation</text>
</g>
<!-- Automation.Secret -->
<g id="node1" class="node">
<title>Automation.Secret</title>
<path fill="#c8e6c9" stroke="black" d="M1027.38,-52C1027.38,-52 997.38,-52 997.38,-52 991.38,-52 985.38,-46 985.38,-40 985.38,-40 985.38,-28 985.38,-28 985.38,-22 991.38,-16 997.38,-16 997.38,-16 1027.38,-16 1027.38,-16 1033.38,-16 1039.38,-22 1039.38,-28 1039.38,-28 1039.38,-40 1039.38,-40 1039.38,-46 1033.38,-52 1027.38,-52"/>
<text text-anchor="middle" x="1012.38" y="-31.5" font-family="Helvetica,sans-Serif" font-size="10.00">Secret</text>
</g>
<!-- Automation.Types -->
<g id="node2" class="node">
<title>Automation.Types</title>
<path fill="#c8e6c9" stroke="black" d="M1027.38,-124C1027.38,-124 997.38,-124 997.38,-124 991.38,-124 985.38,-118 985.38,-112 985.38,-112 985.38,-100 985.38,-100 985.38,-94 991.38,-88 997.38,-88 997.38,-88 1027.38,-88 1027.38,-88 1033.38,-88 1039.38,-94 1039.38,-100 1039.38,-100 1039.38,-112 1039.38,-112 1039.38,-118 1033.38,-124 1027.38,-124"/>
<text text-anchor="middle" x="1012.38" y="-103.5" font-family="Helvetica,sans-Serif" font-size="10.00">Types</text>
</g>
<!-- Automation.Types&#45;&gt;Automation.Secret -->
<g id="edge75" class="edge">
<title>Automation.Types&#45;&gt;Automation.Secret</title>
<path fill="none" stroke="#999999" d="M1012.38,-87.7C1012.38,-79.14 1012.38,-68.66 1012.38,-59.3"/>
<polygon fill="#999999" stroke="#999999" points="1014.83,-59.1 1012.38,-52.1 1009.93,-59.1 1014.83,-59.1"/>
</g>
<!-- Automation.Text -->
<g id="node3" class="node">
<title>Automation.Text</title>
<path fill="#c8e6c9" stroke="black" d="M1222.38,-196C1222.38,-196 1192.38,-196 1192.38,-196 1186.38,-196 1180.38,-190 1180.38,-184 1180.38,-184 1180.38,-172 1180.38,-172 1180.38,-166 1186.38,-160 1192.38,-160 1192.38,-160 1222.38,-160 1222.38,-160 1228.38,-160 1234.38,-166 1234.38,-172 1234.38,-172 1234.38,-184 1234.38,-184 1234.38,-190 1228.38,-196 1222.38,-196"/>
<text text-anchor="middle" x="1207.38" y="-175.5" font-family="Helvetica,sans-Serif" font-size="10.00">Text</text>
</g>
<!-- Automation.Text&#45;&gt;Automation.Types -->
<g id="edge74" class="edge">
<title>Automation.Text&#45;&gt;Automation.Types</title>
<path fill="none" stroke="#999999" d="M1185.22,-159.93C1180.79,-157.01 1176.06,-154.21 1171.38,-152 1130.51,-132.69 1079.71,-120.1 1046.69,-113.28"/>
<polygon fill="#999999" stroke="#999999" points="1046.86,-110.81 1039.52,-111.83 1045.89,-115.61 1046.86,-110.81"/>
</g>
<!-- Automation.Json -->
<g id="node4" class="node">
<title>Automation.Json</title>
<path fill="#c8e6c9" stroke="black" d="M1058.38,-196C1058.38,-196 1028.38,-196 1028.38,-196 1022.38,-196 1016.38,-190 1016.38,-184 1016.38,-184 1016.38,-172 1016.38,-172 1016.38,-166 1022.38,-160 1028.38,-160 1028.38,-160 1058.38,-160 1058.38,-160 1064.38,-160 1070.38,-166 1070.38,-172 1070.38,-172 1070.38,-184 1070.38,-184 1070.38,-190 1064.38,-196 1058.38,-196"/>
<text text-anchor="middle" x="1043.38" y="-175.5" font-family="Helvetica,sans-Serif" font-size="10.00">Json</text>
</g>
<!-- Automation.Html -->
<g id="node5" class="node">
<title>Automation.Html</title>
<path fill="#c8e6c9" stroke="black" d="M986.38,-196C986.38,-196 956.38,-196 956.38,-196 950.38,-196 944.38,-190 944.38,-184 944.38,-184 944.38,-172 944.38,-172 944.38,-166 950.38,-160 956.38,-160 956.38,-160 986.38,-160 986.38,-160 992.38,-160 998.38,-166 998.38,-172 998.38,-172 998.38,-184 998.38,-184 998.38,-190 992.38,-196 986.38,-196"/>
<text text-anchor="middle" x="971.38" y="-175.5" font-family="Helvetica,sans-Serif" font-size="10.00">Html</text>
</g>
<!-- Automation.Frontmatter -->
<g id="node6" class="node">
<title>Automation.Frontmatter</title>
<path fill="#c8e6c9" stroke="black" d="M1150.38,-196C1150.38,-196 1100.38,-196 1100.38,-196 1094.38,-196 1088.38,-190 1088.38,-184 1088.38,-184 1088.38,-172 1088.38,-172 1088.38,-166 1094.38,-160 1100.38,-160 1100.38,-160 1150.38,-160 1150.38,-160 1156.38,-160 1162.38,-166 1162.38,-172 1162.38,-172 1162.38,-184 1162.38,-184 1162.38,-190 1156.38,-196 1150.38,-196"/>
<text text-anchor="middle" x="1125.38" y="-175.5" font-family="Helvetica,sans-Serif" font-size="10.00">Frontmatter</text>
</g>
<!-- Automation.Frontmatter&#45;&gt;Automation.Types -->
<g id="edge29" class="edge">
<title>Automation.Frontmatter&#45;&gt;Automation.Types</title>
<path fill="none" stroke="#999999" d="M1097.74,-159.88C1082.17,-150.23 1062.59,-138.1 1046.12,-127.9"/>
<polygon fill="#999999" stroke="#999999" points="1046.98,-125.55 1039.74,-123.95 1044.4,-129.72 1046.98,-125.55"/>
</g>
<!-- Automation.Retry -->
<g id="node7" class="node">
<title>Automation.Retry</title>
<path fill="#c8e6c9" stroke="black" d="M914.38,-196C914.38,-196 884.38,-196 884.38,-196 878.38,-196 872.38,-190 872.38,-184 872.38,-184 872.38,-172 872.38,-172 872.38,-166 878.38,-160 884.38,-160 884.38,-160 914.38,-160 914.38,-160 920.38,-160 926.38,-166 926.38,-172 926.38,-172 926.38,-184 926.38,-184 926.38,-190 920.38,-196 914.38,-196"/>
<text text-anchor="middle" x="899.38" y="-175.5" font-family="Helvetica,sans-Serif" font-size="10.00">Retry</text>
</g>
<!-- Automation.Platforms.Twitter -->
<g id="node8" class="node">
<title>Automation.Platforms.Twitter</title>
<path fill="#bbdefb" stroke="black" d="M836.38,-279C836.38,-279 806.38,-279 806.38,-279 800.38,-279 794.38,-273 794.38,-267 794.38,-267 794.38,-255 794.38,-255 794.38,-249 800.38,-243 806.38,-243 806.38,-243 836.38,-243 836.38,-243 842.38,-243 848.38,-249 848.38,-255 848.38,-255 848.38,-267 848.38,-267 848.38,-273 842.38,-279 836.38,-279"/>
<text text-anchor="middle" x="821.38" y="-258.5" font-family="Helvetica,sans-Serif" font-size="10.00">Twitter</text>
</g>
<!-- Automation.Platforms.Twitter&#45;&gt;Automation.Types -->
<g id="edge53" class="edge">
<title>Automation.Platforms.Twitter&#45;&gt;Automation.Types</title>
<path fill="none" stroke="#999999" d="M802.75,-242.99C784.79,-224.69 762.98,-195.93 782.38,-179"/>
</g>
<!-- Automation.Platforms.Twitter&#45;&gt;Automation.Json -->
<g id="edge51" class="edge">
<title>Automation.Platforms.Twitter&#45;&gt;Automation.Json</title>
<path fill="none" stroke="#999999" d="M845.15,-242.84C850.58,-239.69 856.49,-236.83 862.38,-235 893.2,-225.42 978.93,-242.22 1007.38,-227 1017.63,-221.52 1025.78,-211.7 1031.72,-202.36"/>
<polygon fill="#999999" stroke="#999999" points="1033.83,-203.62 1035.3,-196.35 1029.62,-201.11 1033.83,-203.62"/>
</g>
<!-- Automation.Platforms.Twitter&#45;&gt;Automation.Html -->
<g id="edge50" class="edge">
<title>Automation.Platforms.Twitter&#45;&gt;Automation.Html</title>
<path fill="none" stroke="#999999" d="M845.67,-242.82C850.97,-239.76 856.7,-236.94 862.38,-235 893.28,-224.47 907.03,-243.17 935.38,-227 945.38,-221.3 953.46,-211.58 959.4,-202.37"/>
<polygon fill="#999999" stroke="#999999" points="961.65,-203.38 963.18,-196.13 957.46,-200.85 961.65,-203.38"/>
</g>
<!-- Automation.Platforms.Twitter&#45;&gt;Automation.Retry -->
<g id="edge52" class="edge">
<title>Automation.Platforms.Twitter&#45;&gt;Automation.Retry</title>
<path fill="none" stroke="#999999" d="M843.07,-242.88C848.89,-237.96 855.04,-232.45 860.38,-227 868.08,-219.15 875.86,-209.9 882.42,-201.63"/>
<polygon fill="#999999" stroke="#999999" points="884.37,-203.11 886.75,-196.09 880.51,-200.09 884.37,-203.11"/>
</g>
<!-- Automation.Platforms.Bluesky -->
<g id="node9" class="node">
<title>Automation.Platforms.Bluesky</title>
<path fill="#bbdefb" stroke="black" d="M680.88,-279C680.88,-279 649.88,-279 649.88,-279 643.88,-279 637.88,-273 637.88,-267 637.88,-267 637.88,-255 637.88,-255 637.88,-249 643.88,-243 649.88,-243 649.88,-243 680.88,-243 680.88,-243 686.88,-243 692.88,-249 692.88,-255 692.88,-255 692.88,-267 692.88,-267 692.88,-273 686.88,-279 680.88,-279"/>
<text text-anchor="middle" x="665.38" y="-258.5" font-family="Helvetica,sans-Serif" font-size="10.00">Bluesky</text>
</g>
<!-- Automation.Platforms.Bluesky&#45;&gt;Automation.Types -->
<g id="edge45" class="edge">
<title>Automation.Platforms.Bluesky&#45;&gt;Automation.Types</title>
<path fill="none" stroke="#999999" d="M688.74,-242.97C693.16,-240.11 697.82,-237.32 702.38,-235 711.65,-230.27 715.35,-232.17 724.38,-227 753.42,-210.37 757.17,-201 782.38,-179"/>
<path fill="none" stroke="#999999" d="M782.38,-177C838.77,-127.8 928.99,-113.18 978,-108.84"/>
<polygon fill="#999999" stroke="#999999" points="978.43,-111.26 985.21,-108.24 978.03,-106.37 978.43,-111.26"/>
</g>
<!-- Automation.Platforms.Bluesky&#45;&gt;Automation.Json -->
<g id="edge42" class="edge">
<title>Automation.Platforms.Bluesky&#45;&gt;Automation.Json</title>
<path fill="none" stroke="#999999" d="M686.21,-242.97C691.23,-239.73 696.77,-236.8 702.38,-235 734.67,-224.65 977.26,-242.56 1007.38,-227 1017.71,-221.67 1025.87,-211.87 1031.8,-202.5"/>
<polygon fill="#999999" stroke="#999999" points="1033.91,-203.74 1035.37,-196.47 1029.69,-201.25 1033.91,-203.74"/>
</g>
<!-- Automation.Platforms.Bluesky&#45;&gt;Automation.Html -->
<g id="edge41" class="edge">
<title>Automation.Platforms.Bluesky&#45;&gt;Automation.Html</title>
<path fill="none" stroke="#999999" d="M686.62,-242.75C691.53,-239.61 696.93,-236.77 702.38,-235 727.02,-226.99 912.42,-238.98 935.38,-227 945.69,-221.63 953.85,-211.82 959.77,-202.46"/>
<polygon fill="#999999" stroke="#999999" points="961.89,-203.71 963.35,-196.43 957.67,-201.21 961.89,-203.71"/>
</g>
<!-- Automation.Platforms.Bluesky&#45;&gt;Automation.Retry -->
<g id="edge44" class="edge">
<title>Automation.Platforms.Bluesky&#45;&gt;Automation.Retry</title>
<path fill="none" stroke="#999999" d="M686.64,-242.82C691.55,-239.67 696.94,-236.82 702.38,-235 735.73,-223.86 829.03,-242.91 860.38,-227 871.07,-221.58 879.84,-211.77 886.35,-202.42"/>
<polygon fill="#999999" stroke="#999999" points="888.51,-203.6 890.29,-196.4 884.41,-200.91 888.51,-203.6"/>
</g>
<!-- Automation.Platforms.OgMetadata -->
<g id="node11" class="node">
<title>Automation.Platforms.OgMetadata</title>
<path fill="#bbdefb" stroke="black" d="M702.88,-196C702.88,-196 649.88,-196 649.88,-196 643.88,-196 637.88,-190 637.88,-184 637.88,-184 637.88,-172 637.88,-172 637.88,-166 643.88,-160 649.88,-160 649.88,-160 702.88,-160 702.88,-160 708.88,-160 714.88,-166 714.88,-172 714.88,-172 714.88,-184 714.88,-184 714.88,-190 708.88,-196 702.88,-196"/>
<text text-anchor="middle" x="676.38" y="-175.5" font-family="Helvetica,sans-Serif" font-size="10.00">OgMetadata</text>
</g>
<!-- Automation.Platforms.Bluesky&#45;&gt;Automation.Platforms.OgMetadata -->
<g id="edge43" class="edge">
<title>Automation.Platforms.Bluesky&#45;&gt;Automation.Platforms.OgMetadata</title>
<path fill="none" stroke="#999999" d="M667.72,-242.82C669.28,-231.33 671.35,-216.04 673.08,-203.31"/>
<polygon fill="#999999" stroke="#999999" points="675.54,-203.42 674.05,-196.15 670.68,-202.76 675.54,-203.42"/>
</g>
<!-- Automation.Platforms.Mastodon -->
<g id="node10" class="node">
<title>Automation.Platforms.Mastodon</title>
<path fill="#bbdefb" stroke="black" d="M763.88,-279C763.88,-279 722.88,-279 722.88,-279 716.88,-279 710.88,-273 710.88,-267 710.88,-267 710.88,-255 710.88,-255 710.88,-249 716.88,-243 722.88,-243 722.88,-243 763.88,-243 763.88,-243 769.88,-243 775.88,-249 775.88,-255 775.88,-255 775.88,-267 775.88,-267 775.88,-273 769.88,-279 763.88,-279"/>
<text text-anchor="middle" x="743.38" y="-258.5" font-family="Helvetica,sans-Serif" font-size="10.00">Mastodon</text>
</g>
<!-- Automation.Platforms.Mastodon&#45;&gt;Automation.Types -->
<g id="edge48" class="edge">
<title>Automation.Platforms.Mastodon&#45;&gt;Automation.Types</title>
<path fill="none" stroke="#999999" d="M747.31,-242.99C752.39,-224.69 762.98,-195.93 782.38,-179"/>
</g>
<!-- Automation.Platforms.Mastodon&#45;&gt;Automation.Json -->
<g id="edge46" class="edge">
<title>Automation.Platforms.Mastodon&#45;&gt;Automation.Json</title>
<path fill="none" stroke="#999999" d="M767.75,-242.75C773.31,-239.61 779.36,-236.77 785.38,-235 809.06,-228.03 985.51,-238.43 1007.38,-227 1017.68,-221.62 1025.84,-211.81 1031.77,-202.46"/>
<polygon fill="#999999" stroke="#999999" points="1033.88,-203.7 1035.34,-196.43 1029.67,-201.2 1033.88,-203.7"/>
</g>
<!-- Automation.Platforms.Mastodon&#45;&gt;Automation.Retry -->
<g id="edge47" class="edge">
<title>Automation.Platforms.Mastodon&#45;&gt;Automation.Retry</title>
<path fill="none" stroke="#999999" d="M768.3,-242.81C773.73,-239.75 779.59,-236.93 785.38,-235 817.19,-224.4 830.92,-242.99 860.38,-227 870.91,-221.28 879.67,-211.43 886.2,-202.14"/>
<polygon fill="#999999" stroke="#999999" points="888.34,-203.35 890.17,-196.16 884.26,-200.64 888.34,-203.35"/>
</g>
<!-- Automation.Platforms.OgMetadata&#45;&gt;Automation.Types -->
<g id="edge49" class="edge">
<title>Automation.Platforms.OgMetadata&#45;&gt;Automation.Types</title>
<path fill="none" stroke="#999999" d="M715.15,-165.7C731.5,-161.13 750.79,-156 768.38,-152 842.69,-135.08 930.83,-120.06 978.19,-112.39"/>
<polygon fill="#999999" stroke="#999999" points="978.63,-114.8 985.15,-111.26 977.85,-109.96 978.63,-114.8"/>
</g>
<!-- Automation.BlogPrompt -->
<g id="node12" class="node">
<title>Automation.BlogPrompt</title>
<path fill="#fff9c4" stroke="black" d="M219.38,-279C219.38,-279 169.38,-279 169.38,-279 163.38,-279 157.38,-273 157.38,-267 157.38,-267 157.38,-255 157.38,-255 157.38,-249 163.38,-243 169.38,-243 169.38,-243 219.38,-243 219.38,-243 225.38,-243 231.38,-249 231.38,-255 231.38,-255 231.38,-267 231.38,-267 231.38,-273 225.38,-279 219.38,-279"/>
<text text-anchor="middle" x="194.38" y="-258.5" font-family="Helvetica,sans-Serif" font-size="10.00">BlogPrompt</text>
</g>
<!-- Automation.BlogPrompt&#45;&gt;Automation.Types -->
<g id="edge15" class="edge">
<title>Automation.BlogPrompt&#45;&gt;Automation.Types</title>
<path fill="none" stroke="#999999" d="M221.31,-243C227.38,-239.84 233.94,-236.94 240.38,-235 279.69,-223.17 292.51,-236.74 332.38,-227 386.58,-213.76 400.47,-207.59 448.38,-179"/>
<path fill="none" stroke="#999999" d="M448.38,-177C538.77,-123.07 870.22,-110.41 978.16,-107.69"/>
<polygon fill="#999999" stroke="#999999" points="978.3,-110.14 985.24,-107.52 978.18,-105.24 978.3,-110.14"/>
</g>
<!-- Automation.BlogPrompt&#45;&gt;Automation.Frontmatter -->
<g id="edge14" class="edge">
<title>Automation.BlogPrompt&#45;&gt;Automation.Frontmatter</title>
<path fill="none" stroke="#999999" d="M220.71,-242.87C226.93,-239.64 233.7,-236.73 240.38,-235 285.5,-223.3 1036.6,-245.5 1079.38,-227 1091.6,-221.72 1102.15,-211.45 1110.05,-201.76"/>
<polygon fill="#999999" stroke="#999999" points="1112.04,-203.2 1114.39,-196.16 1108.17,-200.19 1112.04,-203.2"/>
</g>
<!-- Automation.BlogPosts -->
<g id="node14" class="node">
<title>Automation.BlogPosts</title>
<path fill="#fff9c4" stroke="black" d="M193.88,-196C193.88,-196 152.88,-196 152.88,-196 146.88,-196 140.88,-190 140.88,-184 140.88,-184 140.88,-172 140.88,-172 140.88,-166 146.88,-160 152.88,-160 152.88,-160 193.88,-160 193.88,-160 199.88,-160 205.88,-166 205.88,-172 205.88,-172 205.88,-184 205.88,-184 205.88,-190 199.88,-196 193.88,-196"/>
<text text-anchor="middle" x="173.38" y="-175.5" font-family="Helvetica,sans-Serif" font-size="10.00">BlogPosts</text>
</g>
<!-- Automation.BlogPrompt&#45;&gt;Automation.BlogPosts -->
<g id="edge12" class="edge">
<title>Automation.BlogPrompt&#45;&gt;Automation.BlogPosts</title>
<path fill="none" stroke="#999999" d="M189.93,-242.82C186.92,-231.22 182.91,-215.75 179.59,-202.95"/>
<polygon fill="#999999" stroke="#999999" points="181.96,-202.31 177.83,-196.15 177.22,-203.54 181.96,-202.31"/>
</g>
<!-- Automation.BlogComments -->
<g id="node15" class="node">
<title>Automation.BlogComments</title>
<path fill="#fff9c4" stroke="black" d="M110.38,-196C110.38,-196 42.38,-196 42.38,-196 36.38,-196 30.38,-190 30.38,-184 30.38,-184 30.38,-172 30.38,-172 30.38,-166 36.38,-160 42.38,-160 42.38,-160 110.38,-160 110.38,-160 116.38,-160 122.38,-166 122.38,-172 122.38,-172 122.38,-184 122.38,-184 122.38,-190 116.38,-196 110.38,-196"/>
<text text-anchor="middle" x="76.38" y="-175.5" font-family="Helvetica,sans-Serif" font-size="10.00">BlogComments</text>
</g>
<!-- Automation.BlogPrompt&#45;&gt;Automation.BlogComments -->
<g id="edge11" class="edge">
<title>Automation.BlogPrompt&#45;&gt;Automation.BlogComments</title>
<path fill="none" stroke="#999999" d="M159.16,-242.97C150.2,-238.18 140.74,-232.71 132.38,-227 120.96,-219.2 109.21,-209.44 99.44,-200.76"/>
<polygon fill="#999999" stroke="#999999" points="101.07,-198.93 94.23,-196.07 97.79,-202.58 101.07,-198.93"/>
</g>
<!-- Automation.BlogSeriesConfig -->
<g id="node16" class="node">
<title>Automation.BlogSeriesConfig</title>
<path fill="#fff9c4" stroke="black" d="M310.88,-196C310.88,-196 235.88,-196 235.88,-196 229.88,-196 223.88,-190 223.88,-184 223.88,-184 223.88,-172 223.88,-172 223.88,-166 229.88,-160 235.88,-160 235.88,-160 310.88,-160 310.88,-160 316.88,-160 322.88,-166 322.88,-172 322.88,-172 322.88,-184 322.88,-184 322.88,-190 316.88,-196 310.88,-196"/>
<text text-anchor="middle" x="273.38" y="-175.5" font-family="Helvetica,sans-Serif" font-size="10.00">BlogSeriesConfig</text>
</g>
<!-- Automation.BlogPrompt&#45;&gt;Automation.BlogSeriesConfig -->
<g id="edge13" class="edge">
<title>Automation.BlogPrompt&#45;&gt;Automation.BlogSeriesConfig</title>
<path fill="none" stroke="#999999" d="M211.14,-242.82C222.97,-230.69 238.94,-214.31 251.74,-201.19"/>
<polygon fill="#999999" stroke="#999999" points="253.52,-202.88 256.65,-196.15 250.01,-199.45 253.52,-202.88"/>
</g>
<!-- Automation.BlogSeries -->
<g id="node13" class="node">
<title>Automation.BlogSeries</title>
<path fill="#fff9c4" stroke="black" d="M223.38,-354C223.38,-354 179.38,-354 179.38,-354 173.38,-354 167.38,-348 167.38,-342 167.38,-342 167.38,-330 167.38,-330 167.38,-324 173.38,-318 179.38,-318 179.38,-318 223.38,-318 223.38,-318 229.38,-318 235.38,-324 235.38,-330 235.38,-330 235.38,-342 235.38,-342 235.38,-348 229.38,-354 223.38,-354"/>
<text text-anchor="middle" x="201.38" y="-333.5" font-family="Helvetica,sans-Serif" font-size="10.00">BlogSeries</text>
</g>
<!-- Automation.BlogSeries&#45;&gt;Automation.Frontmatter -->
<g id="edge20" class="edge">
<title>Automation.BlogSeries&#45;&gt;Automation.Frontmatter</title>
<path fill="none" stroke="#999999" d="M235.63,-320.44C238.88,-319.46 242.17,-318.62 245.38,-318 278.93,-311.52 828.52,-322.35 860.38,-310 890.32,-298.39 883.22,-269.73 914.38,-262"/>
<path fill="none" stroke="#999999" d="M914.38,-260C929.33,-256.29 924.39,-241.44 938.38,-235 966.89,-221.88 1050.88,-240.13 1079.38,-227 1091.3,-221.51 1101.71,-211.43 1109.59,-201.92"/>
<polygon fill="#999999" stroke="#999999" points="1111.52,-203.43 1113.93,-196.42 1107.67,-200.4 1111.52,-203.43"/>
</g>
<!-- Automation.BlogSeries&#45;&gt;Automation.BlogPrompt -->
<g id="edge18" class="edge">
<title>Automation.BlogSeries&#45;&gt;Automation.BlogPrompt</title>
<path fill="none" stroke="#999999" d="M199.72,-317.7C198.83,-308.34 197.7,-296.62 196.72,-286.34"/>
<polygon fill="#999999" stroke="#999999" points="199.14,-285.91 196.03,-279.18 194.26,-286.38 199.14,-285.91"/>
</g>
<!-- Automation.BlogSeries&#45;&gt;Automation.BlogPosts -->
<g id="edge17" class="edge">
<title>Automation.BlogSeries&#45;&gt;Automation.BlogPosts</title>
<path fill="none" stroke="#999999" d="M138.38,-260C135.38,-239.39 145.44,-217.83 155.53,-202.13"/>
<polygon fill="#999999" stroke="#999999" points="157.64,-203.39 159.52,-196.21 153.58,-200.65 157.64,-203.39"/>
</g>
<!-- Automation.BlogSeries&#45;&gt;Automation.BlogComments -->
<g id="edge16" class="edge">
<title>Automation.BlogSeries&#45;&gt;Automation.BlogComments</title>
<path fill="none" stroke="#999999" d="M167.27,-324.59C160.14,-320.99 153.3,-316.23 148.38,-310 134.89,-292.89 141.53,-283.56 138.38,-262"/>
<path fill="none" stroke="#999999" d="M138.38,-260C135.02,-236.9 118.68,-216.11 103.62,-201.38"/>
<polygon fill="#999999" stroke="#999999" points="104.93,-199.25 98.16,-196.24 101.57,-202.82 104.93,-199.25"/>
</g>
<!-- Automation.BlogSeries&#45;&gt;Automation.BlogSeriesConfig -->
<g id="edge19" class="edge">
<title>Automation.BlogSeries&#45;&gt;Automation.BlogSeriesConfig</title>
<path fill="none" stroke="#999999" d="M138.38,-260C136.66,-248.16 138.89,-242.29 148.38,-235 172.17,-216.74 187.82,-238.82 215.38,-227 229.3,-221.03 242.49,-210.64 252.77,-201.05"/>
<polygon fill="#999999" stroke="#999999" points="254.53,-202.76 257.87,-196.14 251.13,-199.23 254.53,-202.76"/>
</g>
<!-- Automation.BlogPosts&#45;&gt;Automation.Frontmatter -->
<g id="edge10" class="edge">
<title>Automation.BlogPosts&#45;&gt;Automation.Frontmatter</title>
<path fill="none" stroke="#999999" d="M183.08,-196.24C191.74,-209.98 205.9,-227.08 224.38,-231 247.37,-235.88 1047.39,-235.88 1070.38,-231 1086.88,-227.5 1100.56,-214.39 1110.15,-202.09"/>
<polygon fill="#999999" stroke="#999999" points="1112.34,-203.25 1114.53,-196.16 1108.4,-200.34 1112.34,-203.25"/>
</g>
<!-- Automation.BlogComments&#45;&gt;Automation.Json -->
<g id="edge4" class="edge">
<title>Automation.BlogComments&#45;&gt;Automation.Json</title>
<path fill="none" stroke="#999999" d="M90.31,-196.23C102.12,-209.74 120.45,-226.56 141.38,-231 164.67,-235.94 975.1,-235.94 998.38,-231 1013.36,-227.82 1024.55,-214.77 1032.02,-202.42"/>
<polygon fill="#999999" stroke="#999999" points="1034.29,-203.38 1035.59,-196.08 1030.02,-200.98 1034.29,-203.38"/>
</g>
<!-- Automation.BlogImage -->
<g id="node17" class="node">
<title>Automation.BlogImage</title>
<path fill="#fff9c4" stroke="black" d="M310.88,-354C310.88,-354 265.88,-354 265.88,-354 259.88,-354 253.88,-348 253.88,-342 253.88,-342 253.88,-330 253.88,-330 253.88,-324 259.88,-318 265.88,-318 265.88,-318 310.88,-318 310.88,-318 316.88,-318 322.88,-324 322.88,-330 322.88,-330 322.88,-342 322.88,-342 322.88,-348 316.88,-354 310.88,-354"/>
<text text-anchor="middle" x="288.38" y="-333.5" font-family="Helvetica,sans-Serif" font-size="10.00">BlogImage</text>
</g>
<!-- Automation.BlogImage&#45;&gt;Automation.Types -->
<g id="edge9" class="edge">
<title>Automation.BlogImage&#45;&gt;Automation.Types</title>
<path fill="none" stroke="#999999" d="M253.62,-320.43C250.53,-319.49 247.43,-318.65 244.38,-318 211.96,-311.05 125.27,-324.37 95.38,-310 25.5,-276.4 -32.19,-208.06 21.38,-152 55.13,-116.69 807.41,-108.62 978.14,-107.24"/>
<polygon fill="#999999" stroke="#999999" points="978.38,-109.69 985.36,-107.19 978.34,-104.79 978.38,-109.69"/>
</g>
<!-- Automation.BlogImage&#45;&gt;Automation.Json -->
<g id="edge8" class="edge">
<title>Automation.BlogImage&#45;&gt;Automation.Json</title>
<path fill="none" stroke="#999999" d="M322.93,-321.05C327.07,-319.82 331.29,-318.75 335.38,-318 364.08,-312.74 835.48,-325.2 860.38,-310 892.63,-290.32 868.74,-255.63 900.38,-235 920.36,-221.98 986.47,-238.45 1007.38,-227 1017.48,-221.47 1025.57,-211.77 1031.5,-202.53"/>
<polygon fill="#999999" stroke="#999999" points="1033.76,-203.53 1035.26,-196.27 1029.56,-201.01 1033.76,-203.53"/>
</g>
<!-- Automation.BlogImage&#45;&gt;Automation.Frontmatter -->
<g id="edge6" class="edge">
<title>Automation.BlogImage&#45;&gt;Automation.Frontmatter</title>
<path fill="none" stroke="#999999" d="M322.93,-321.05C327.07,-319.81 331.29,-318.75 335.38,-318 350.66,-315.21 881.52,-318.71 894.38,-310 913.52,-297.04 891.95,-267.56 914.38,-262"/>
</g>
<!-- Automation.BlogImage&#45;&gt;Automation.BlogPrompt -->
<g id="edge5" class="edge">
<title>Automation.BlogImage&#45;&gt;Automation.BlogPrompt</title>
<path fill="none" stroke="#999999" d="M253.72,-318.7C249.09,-316.02 244.52,-313.1 240.38,-310 230.78,-302.8 221.39,-293.53 213.62,-285.05"/>
<polygon fill="#999999" stroke="#999999" points="215.01,-282.94 208.52,-279.35 211.36,-286.2 215.01,-282.94"/>
</g>
<!-- Automation.Gemini -->
<g id="node23" class="node">
<title>Automation.Gemini</title>
<path fill="#e1bee7" stroke="black" d="M1098.38,-279C1098.38,-279 1068.38,-279 1068.38,-279 1062.38,-279 1056.38,-273 1056.38,-267 1056.38,-267 1056.38,-255 1056.38,-255 1056.38,-249 1062.38,-243 1068.38,-243 1068.38,-243 1098.38,-243 1098.38,-243 1104.38,-243 1110.38,-249 1110.38,-255 1110.38,-255 1110.38,-267 1110.38,-267 1110.38,-273 1104.38,-279 1098.38,-279"/>
<text text-anchor="middle" x="1083.38" y="-258.5" font-family="Helvetica,sans-Serif" font-size="10.00">Gemini</text>
</g>
<!-- Automation.BlogImage&#45;&gt;Automation.Gemini -->
<g id="edge7" class="edge">
<title>Automation.BlogImage&#45;&gt;Automation.Gemini</title>
<path fill="none" stroke="#999999" d="M322.93,-321.04C327.07,-319.81 331.29,-318.75 335.38,-318 404.37,-305.46 897.68,-324 966.38,-310 995.56,-304.06 1026.66,-290.94 1049.45,-279.92"/>
<polygon fill="#999999" stroke="#999999" points="1050.75,-282.01 1055.95,-276.72 1048.59,-277.61 1050.75,-282.01"/>
</g>
<!-- Automation.AiBlogLinks -->
<g id="node18" class="node">
<title>Automation.AiBlogLinks</title>
<path fill="#fff9c4" stroke="black" d="M311.38,-279C311.38,-279 261.38,-279 261.38,-279 255.38,-279 249.38,-273 249.38,-267 249.38,-267 249.38,-255 249.38,-255 249.38,-249 255.38,-243 261.38,-243 261.38,-243 311.38,-243 311.38,-243 317.38,-243 323.38,-249 323.38,-255 323.38,-255 323.38,-267 323.38,-267 323.38,-273 317.38,-279 311.38,-279"/>
<text text-anchor="middle" x="286.38" y="-258.5" font-family="Helvetica,sans-Serif" font-size="10.00">AiBlogLinks</text>
</g>
<!-- Automation.AiBlogLinks&#45;&gt;Automation.Frontmatter -->
<g id="edge2" class="edge">
<title>Automation.AiBlogLinks&#45;&gt;Automation.Frontmatter</title>
<path fill="none" stroke="#999999" d="M314.54,-242.87C321.15,-239.64 328.33,-236.73 335.38,-235 375.52,-225.12 1041.45,-243.43 1079.38,-227 1091.6,-221.71 1102.15,-211.44 1110.05,-201.75"/>
<polygon fill="#999999" stroke="#999999" points="1112.03,-203.19 1114.39,-196.16 1108.16,-200.19 1112.03,-203.19"/>
</g>
<!-- Automation.AiBlogLinks&#45;&gt;Automation.BlogSeriesConfig -->
<g id="edge1" class="edge">
<title>Automation.AiBlogLinks&#45;&gt;Automation.BlogSeriesConfig</title>
<path fill="none" stroke="#999999" d="M283.63,-242.82C281.78,-231.33 279.33,-216.04 277.28,-203.31"/>
<polygon fill="#999999" stroke="#999999" points="279.66,-202.68 276.14,-196.15 274.83,-203.45 279.66,-202.68"/>
</g>
<!-- Automation.SocialPosting -->
<g id="node19" class="node">
<title>Automation.SocialPosting</title>
<path fill="#f8bbd0" stroke="black" d="M569.38,-354C569.38,-354 511.38,-354 511.38,-354 505.38,-354 499.38,-348 499.38,-342 499.38,-342 499.38,-330 499.38,-330 499.38,-324 505.38,-318 511.38,-318 511.38,-318 569.38,-318 569.38,-318 575.38,-318 581.38,-324 581.38,-330 581.38,-330 581.38,-342 581.38,-342 581.38,-348 575.38,-354 569.38,-354"/>
<text text-anchor="middle" x="540.38" y="-333.5" font-family="Helvetica,sans-Serif" font-size="10.00">SocialPosting</text>
</g>
<!-- Automation.SocialPosting&#45;&gt;Automation.Types -->
<g id="edge71" class="edge">
<title>Automation.SocialPosting&#45;&gt;Automation.Types</title>
<path fill="none" stroke="#999999" d="M581.7,-334.23C681.85,-332.12 931.86,-325.36 966.38,-310 1009.74,-290.71 998.85,-253.88 1042.38,-235 1062.89,-226.11 1221.24,-230.04 1243.38,-227 1334.8,-214.44 1487.42,-261.15 1445.38,-179"/>
<path fill="none" stroke="#999999" d="M1445.38,-177C1427.62,-141.03 1145.71,-116.85 1046.55,-109.42"/>
<polygon fill="#999999" stroke="#999999" points="1046.62,-106.97 1039.46,-108.89 1046.26,-111.85 1046.62,-106.97"/>
</g>
<!-- Automation.SocialPosting&#45;&gt;Automation.Text -->
<g id="edge70" class="edge">
<title>Automation.SocialPosting&#45;&gt;Automation.Text</title>
<path fill="none" stroke="#999999" d="M952.38,-260C967.21,-255.82 962.34,-241.33 976.38,-235 1015.92,-217.18 1133,-247.19 1171.38,-227 1181.67,-221.59 1189.83,-211.78 1195.76,-202.43"/>
<polygon fill="#999999" stroke="#999999" points="1197.87,-203.68 1199.33,-196.41 1193.65,-201.18 1197.87,-203.68"/>
</g>
<!-- Automation.SocialPosting&#45;&gt;Automation.Frontmatter -->
<g id="edge61" class="edge">
<title>Automation.SocialPosting&#45;&gt;Automation.Frontmatter</title>
<path fill="none" stroke="#999999" d="M581.45,-334.64C675.38,-333.5 900.01,-328.82 928.38,-310 948.26,-296.81 929.43,-268.48 952.38,-262"/>
<path fill="none" stroke="#999999" d="M952.38,-260C967.21,-255.82 962.46,-241.58 976.38,-235 1017.89,-215.37 1037.88,-246.64 1079.38,-227 1091.13,-221.44 1101.45,-211.48 1109.32,-202.07"/>
<polygon fill="#999999" stroke="#999999" points="1111.45,-203.33 1113.89,-196.33 1107.61,-200.28 1111.45,-203.33"/>
</g>
<!-- Automation.SocialPosting&#45;&gt;Automation.Platforms.Twitter -->
<g id="edge67" class="edge">
<title>Automation.SocialPosting&#45;&gt;Automation.Platforms.Twitter</title>
<path fill="none" stroke="#999999" d="M581.47,-334.74C641.97,-333.7 751.51,-329.15 785.38,-310 795.4,-304.34 803.48,-294.62 809.43,-285.4"/>
<polygon fill="#999999" stroke="#999999" points="811.67,-286.42 813.2,-279.16 807.48,-283.88 811.67,-286.42"/>
</g>
<!-- Automation.SocialPosting&#45;&gt;Automation.Platforms.Bluesky -->
<g id="edge64" class="edge">
<title>Automation.SocialPosting&#45;&gt;Automation.Platforms.Bluesky</title>
<path fill="none" stroke="#999999" d="M581.61,-327.43C595.61,-323.63 610.86,-318.07 623.38,-310 633.46,-303.51 642.53,-293.92 649.64,-285.02"/>
<polygon fill="#999999" stroke="#999999" points="651.7,-286.35 654.02,-279.3 647.81,-283.37 651.7,-286.35"/>
</g>
<!-- Automation.SocialPosting&#45;&gt;Automation.Platforms.Mastodon -->
<g id="edge65" class="edge">
<title>Automation.SocialPosting&#45;&gt;Automation.Platforms.Mastodon</title>
<path fill="none" stroke="#999999" d="M581.72,-331.9C622.72,-328.25 682.25,-321.22 702.38,-310 712.91,-304.13 721.95,-294.46 728.85,-285.32"/>
<polygon fill="#999999" stroke="#999999" points="730.98,-286.56 733.06,-279.44 726.99,-283.7 730.98,-286.56"/>
</g>
<!-- Automation.SocialPosting&#45;&gt;Automation.Platforms.OgMetadata -->
<g id="edge66" class="edge">
<title>Automation.SocialPosting&#45;&gt;Automation.Platforms.OgMetadata</title>
<path fill="none" stroke="#999999" d="M580.7,-317.79C584.18,-315.45 587.48,-312.86 590.38,-310 617.16,-283.65 608.51,-266.24 629.38,-235 637.12,-223.42 646.85,-211.49 655.45,-201.62"/>
<polygon fill="#999999" stroke="#999999" points="657.29,-203.24 660.09,-196.37 653.62,-199.99 657.29,-203.24"/>
</g>
<!-- Automation.SocialPosting&#45;&gt;Automation.BlogPrompt -->
<g id="edge57" class="edge">
<title>Automation.SocialPosting&#45;&gt;Automation.BlogPrompt</title>
<path fill="none" stroke="#999999" d="M499.36,-331.6C417.3,-324.81 240.74,-310.17 240.38,-310 228.65,-304.41 218.34,-294.44 210.47,-285.04"/>
<polygon fill="#999999" stroke="#999999" points="212.17,-283.25 205.89,-279.3 208.34,-286.3 212.17,-283.25"/>
</g>
<!-- Automation.Prompts -->
<g id="node20" class="node">
<title>Automation.Prompts</title>
<path fill="#f8bbd0" stroke="black" d="M464.88,-279C464.88,-279 431.88,-279 431.88,-279 425.88,-279 419.88,-273 419.88,-267 419.88,-267 419.88,-255 419.88,-255 419.88,-249 425.88,-243 431.88,-243 431.88,-243 464.88,-243 464.88,-243 470.88,-243 476.88,-249 476.88,-255 476.88,-255 476.88,-267 476.88,-267 476.88,-273 470.88,-279 464.88,-279"/>
<text text-anchor="middle" x="448.38" y="-258.5" font-family="Helvetica,sans-Serif" font-size="10.00">Prompts</text>
</g>
<!-- Automation.SocialPosting&#45;&gt;Automation.Prompts -->
<g id="edge68" class="edge">
<title>Automation.SocialPosting&#45;&gt;Automation.Prompts</title>
<path fill="none" stroke="#999999" d="M499.36,-318.54C494.79,-315.98 490.36,-313.13 486.38,-310 477.56,-303.05 469.55,-293.67 463.19,-285.04"/>
<polygon fill="#999999" stroke="#999999" points="465.1,-283.51 459.05,-279.22 461.11,-286.35 465.1,-283.51"/>
</g>
<!-- Automation.EmbedSection -->
<g id="node21" class="node">
<title>Automation.EmbedSection</title>
<path fill="#f8bbd0" stroke="black" d="M569.38,-279C569.38,-279 507.38,-279 507.38,-279 501.38,-279 495.38,-273 495.38,-267 495.38,-267 495.38,-255 495.38,-255 495.38,-249 501.38,-243 507.38,-243 507.38,-243 569.38,-243 569.38,-243 575.38,-243 581.38,-249 581.38,-255 581.38,-255 581.38,-267 581.38,-267 581.38,-273 575.38,-279 569.38,-279"/>
<text text-anchor="middle" x="538.38" y="-258.5" font-family="Helvetica,sans-Serif" font-size="10.00">EmbedSection</text>
</g>
<!-- Automation.SocialPosting&#45;&gt;Automation.EmbedSection -->
<g id="edge59" class="edge">
<title>Automation.SocialPosting&#45;&gt;Automation.EmbedSection</title>
<path fill="none" stroke="#999999" d="M539.91,-317.7C539.65,-308.34 539.33,-296.62 539.05,-286.34"/>
<polygon fill="#999999" stroke="#999999" points="541.49,-286.11 538.85,-279.18 536.6,-286.24 541.49,-286.11"/>
</g>
<!-- Automation.Env -->
<g id="node22" class="node">
<title>Automation.Env</title>
<path fill="#f8bbd0" stroke="black" d="M389.38,-279C389.38,-279 359.38,-279 359.38,-279 353.38,-279 347.38,-273 347.38,-267 347.38,-267 347.38,-255 347.38,-255 347.38,-249 353.38,-243 359.38,-243 359.38,-243 389.38,-243 389.38,-243 395.38,-243 401.38,-249 401.38,-255 401.38,-255 401.38,-267 401.38,-267 401.38,-273 395.38,-279 389.38,-279"/>
<text text-anchor="middle" x="374.38" y="-258.5" font-family="Helvetica,sans-Serif" font-size="10.00">Env</text>
</g>
<!-- Automation.SocialPosting&#45;&gt;Automation.Env -->
<g id="edge60" class="edge">
<title>Automation.SocialPosting&#45;&gt;Automation.Env</title>
<path fill="none" stroke="#999999" d="M499.33,-334.41C472.54,-332.33 437.79,-326.29 411.38,-310 401.63,-303.99 393.48,-294.4 387.34,-285.38"/>
<polygon fill="#999999" stroke="#999999" points="389.26,-283.83 383.41,-279.27 385.13,-286.48 389.26,-283.83"/>
</g>
<!-- Automation.SocialPosting&#45;&gt;Automation.Gemini -->
<g id="edge62" class="edge">
<title>Automation.SocialPosting&#45;&gt;Automation.Gemini</title>
<path fill="none" stroke="#999999" d="M581.6,-334.81C694.24,-334.03 1001.56,-330.06 1042.38,-310 1053.46,-304.56 1062.73,-294.61 1069.63,-285.18"/>
<polygon fill="#999999" stroke="#999999" points="1071.65,-286.57 1073.62,-279.42 1067.62,-283.78 1071.65,-286.57"/>
</g>
<!-- Automation.DailyUpdates -->
<g id="node29" class="node">
<title>Automation.DailyUpdates</title>
<path fill="#e1bee7" stroke="black" d="M1486.88,-354C1486.88,-354 1427.88,-354 1427.88,-354 1421.88,-354 1415.88,-348 1415.88,-342 1415.88,-342 1415.88,-330 1415.88,-330 1415.88,-324 1421.88,-318 1427.88,-318 1427.88,-318 1486.88,-318 1486.88,-318 1492.88,-318 1498.88,-324 1498.88,-330 1498.88,-330 1498.88,-342 1498.88,-342 1498.88,-348 1492.88,-354 1486.88,-354"/>
<text text-anchor="middle" x="1457.38" y="-333.5" font-family="Helvetica,sans-Serif" font-size="10.00">DailyUpdates</text>
</g>
<!-- Automation.SocialPosting&#45;&gt;Automation.DailyUpdates -->
<g id="edge58" class="edge">
<title>Automation.SocialPosting&#45;&gt;Automation.DailyUpdates</title>
<path fill="none" stroke="#999999" d="M581.67,-342.11C664.58,-354.03 857.35,-380.03 1020.38,-389 1041.3,-390.15 1376.89,-393.35 1397.38,-389 1414.83,-385.3 1429.87,-371.99 1440.52,-359.63"/>
<polygon fill="#999999" stroke="#999999" points="1442.55,-361.02 1445.1,-354.06 1438.76,-357.91 1442.55,-361.02"/>
</g>
<!-- Automation.Reflection -->
<g id="node30" class="node">
<title>Automation.Reflection</title>
<path fill="#e1bee7" stroke="black" d="M1181.88,-279C1181.88,-279 1140.88,-279 1140.88,-279 1134.88,-279 1128.88,-273 1128.88,-267 1128.88,-267 1128.88,-255 1128.88,-255 1128.88,-249 1134.88,-243 1140.88,-243 1140.88,-243 1181.88,-243 1181.88,-243 1187.88,-243 1193.88,-249 1193.88,-255 1193.88,-255 1193.88,-267 1193.88,-267 1193.88,-273 1187.88,-279 1181.88,-279"/>
<text text-anchor="middle" x="1161.38" y="-258.5" font-family="Helvetica,sans-Serif" font-size="10.00">Reflection</text>
</g>
<!-- Automation.SocialPosting&#45;&gt;Automation.Reflection -->
<g id="edge69" class="edge">
<title>Automation.SocialPosting&#45;&gt;Automation.Reflection</title>
<path fill="none" stroke="#999999" d="M581.5,-333.66C711.73,-329.35 1107.27,-315.82 1119.38,-310 1130.63,-304.6 1140.11,-294.66 1147.2,-285.22"/>
<polygon fill="#999999" stroke="#999999" points="1149.24,-286.58 1151.3,-279.46 1145.24,-283.74 1149.24,-286.58"/>
</g>
<!-- Automation.ObsidianSync -->
<g id="node33" class="node">
<title>Automation.ObsidianSync</title>
<path fill="#e1bee7" stroke="black" d="M1868.88,-354C1868.88,-354 1809.88,-354 1809.88,-354 1803.88,-354 1797.88,-348 1797.88,-342 1797.88,-342 1797.88,-330 1797.88,-330 1797.88,-324 1803.88,-318 1809.88,-318 1809.88,-318 1868.88,-318 1868.88,-318 1874.88,-318 1880.88,-324 1880.88,-330 1880.88,-330 1880.88,-342 1880.88,-342 1880.88,-348 1874.88,-354 1868.88,-354"/>
<text text-anchor="middle" x="1839.38" y="-333.5" font-family="Helvetica,sans-Serif" font-size="10.00">ObsidianSync</text>
</g>
<!-- Automation.SocialPosting&#45;&gt;Automation.ObsidianSync -->
<g id="edge63" class="edge">
<title>Automation.SocialPosting&#45;&gt;Automation.ObsidianSync</title>
<path fill="none" stroke="#999999" d="M581.67,-342.11C664.58,-354.03 857.35,-380.03 1020.38,-389 1041.46,-390.16 1759.73,-393.38 1780.38,-389 1797.67,-385.33 1812.45,-372.02 1822.9,-359.66"/>
<polygon fill="#999999" stroke="#999999" points="1824.9,-361.07 1827.38,-354.08 1821.09,-358 1824.9,-361.07"/>
</g>
<!-- Automation.Prompts&#45;&gt;Automation.Types -->
<g id="edge54" class="edge">
<title>Automation.Prompts&#45;&gt;Automation.Types</title>
<path fill="none" stroke="#999999" d="M441.43,-242.86C434.59,-222.95 427.85,-191.25 448.38,-179"/>
</g>
<!-- Automation.EmbedSection&#45;&gt;Automation.Types -->
<g id="edge27" class="edge">
<title>Automation.EmbedSection&#45;&gt;Automation.Types</title>
<path fill="none" stroke="#999999" d="M511.21,-242.92C479.36,-222.03 432.77,-188.32 448.38,-179"/>
</g>
<!-- Automation.Env&#45;&gt;Automation.Types -->
<g id="edge28" class="edge">
<title>Automation.Env&#45;&gt;Automation.Types</title>
<path fill="none" stroke="#999999" d="M385.56,-242.68C398.45,-224.1 421.39,-195.1 448.38,-179"/>
</g>
<!-- Automation.Gemini&#45;&gt;Automation.Types -->
<g id="edge32" class="edge">
<title>Automation.Gemini&#45;&gt;Automation.Types</title>
<path fill="none" stroke="#999999" d="M1104.66,-242.87C1109.57,-239.73 1114.95,-236.86 1120.38,-235 1146.3,-226.13 1216.3,-231.07 1243.38,-227 1334.64,-213.29 1487.42,-261.15 1445.38,-179"/>
</g>
<!-- Automation.Gemini&#45;&gt;Automation.Json -->
<g id="edge31" class="edge">
<title>Automation.Gemini&#45;&gt;Automation.Json</title>
<path fill="none" stroke="#999999" d="M1074.9,-242.82C1069.12,-231.12 1061.39,-215.47 1055.04,-202.6"/>
<polygon fill="#999999" stroke="#999999" points="1057.15,-201.34 1051.85,-196.15 1052.76,-203.51 1057.15,-201.34"/>
</g>
<!-- Automation.GeminiQuota -->
<g id="node24" class="node">
<title>Automation.GeminiQuota</title>
<path fill="#e1bee7" stroke="black" d="M1690.88,-354C1690.88,-354 1633.88,-354 1633.88,-354 1627.88,-354 1621.88,-348 1621.88,-342 1621.88,-342 1621.88,-330 1621.88,-330 1621.88,-324 1627.88,-318 1633.88,-318 1633.88,-318 1690.88,-318 1690.88,-318 1696.88,-318 1702.88,-324 1702.88,-330 1702.88,-330 1702.88,-342 1702.88,-342 1702.88,-348 1696.88,-354 1690.88,-354"/>
<text text-anchor="middle" x="1662.38" y="-333.5" font-family="Helvetica,sans-Serif" font-size="10.00">GeminiQuota</text>
</g>
<!-- Automation.GeminiQuota&#45;&gt;Automation.Types -->
<g id="edge33" class="edge">
<title>Automation.GeminiQuota&#45;&gt;Automation.Types</title>
<path fill="none" stroke="#999999" d="M1680.87,-317.75C1695.44,-302.06 1711.18,-278.86 1697.38,-262"/>
<path fill="none" stroke="#999999" d="M1697.38,-260C1689.32,-250.15 1693.55,-242.66 1683.38,-235 1596.59,-169.61 1493.5,-276.43 1445.38,-179"/>
</g>
<!-- Automation.GcpAuth -->
<g id="node25" class="node">
<title>Automation.GcpAuth</title>
<path fill="#e1bee7" stroke="black" d="M1385.38,-354C1385.38,-354 1351.38,-354 1351.38,-354 1345.38,-354 1339.38,-348 1339.38,-342 1339.38,-342 1339.38,-330 1339.38,-330 1339.38,-324 1345.38,-318 1351.38,-318 1351.38,-318 1385.38,-318 1385.38,-318 1391.38,-318 1397.38,-324 1397.38,-330 1397.38,-330 1397.38,-342 1397.38,-342 1397.38,-348 1391.38,-354 1385.38,-354"/>
<text text-anchor="middle" x="1368.38" y="-333.5" font-family="Helvetica,sans-Serif" font-size="10.00">GcpAuth</text>
</g>
<!-- Automation.GcpAuth&#45;&gt;Automation.Json -->
<g id="edge30" class="edge">
<title>Automation.GcpAuth&#45;&gt;Automation.Json</title>
<path fill="none" stroke="#999999" d="M1380.3,-317.79C1381.56,-315.27 1382.65,-312.63 1383.38,-310 1392.28,-277.88 1406.64,-258.88 1383.38,-235 1371.59,-222.9 1094.39,-234.75 1079.38,-227 1069.06,-221.67 1060.9,-211.87 1054.97,-202.5"/>
<polygon fill="#999999" stroke="#999999" points="1057.07,-201.25 1051.4,-196.47 1052.86,-203.74 1057.07,-201.25"/>
</g>
<!-- Automation.Scheduler -->
<g id="node26" class="node">
<title>Automation.Scheduler</title>
<path fill="#e1bee7" stroke="black" d="M1213.88,-354C1213.88,-354 1172.88,-354 1172.88,-354 1166.88,-354 1160.88,-348 1160.88,-342 1160.88,-342 1160.88,-330 1160.88,-330 1160.88,-324 1166.88,-318 1172.88,-318 1172.88,-318 1213.88,-318 1213.88,-318 1219.88,-318 1225.88,-324 1225.88,-330 1225.88,-330 1225.88,-342 1225.88,-342 1225.88,-348 1219.88,-354 1213.88,-354"/>
<text text-anchor="middle" x="1193.38" y="-333.5" font-family="Helvetica,sans-Serif" font-size="10.00">Scheduler</text>
</g>
<!-- Automation.InternalLinking -->
<g id="node27" class="node">
<title>Automation.InternalLinking</title>
<path fill="#e1bee7" stroke="black" d="M1130.88,-354C1130.88,-354 1065.88,-354 1065.88,-354 1059.88,-354 1053.88,-348 1053.88,-342 1053.88,-342 1053.88,-330 1053.88,-330 1053.88,-324 1059.88,-318 1065.88,-318 1065.88,-318 1130.88,-318 1130.88,-318 1136.88,-318 1142.88,-324 1142.88,-330 1142.88,-330 1142.88,-342 1142.88,-342 1142.88,-348 1136.88,-354 1130.88,-354"/>
<text text-anchor="middle" x="1098.38" y="-333.5" font-family="Helvetica,sans-Serif" font-size="10.00">InternalLinking</text>
</g>
<!-- Automation.InternalLinking&#45;&gt;Automation.Types -->
<g id="edge39" class="edge">
<title>Automation.InternalLinking&#45;&gt;Automation.Types</title>
<path fill="none" stroke="#999999" d="M1331.38,-260C1339.71,-198.41 1473.7,-234.33 1445.38,-179"/>
</g>
<!-- Automation.InternalLinking&#45;&gt;Automation.Json -->
<g id="edge37" class="edge">
<title>Automation.InternalLinking&#45;&gt;Automation.Json</title>
<path fill="none" stroke="#999999" d="M1142.95,-320.01C1146.12,-319.24 1149.29,-318.56 1152.38,-318 1169.9,-314.86 1297.92,-320.37 1312.38,-310 1331.03,-296.63 1328.31,-284.74 1331.38,-262"/>
<path fill="none" stroke="#999999" d="M1331.38,-260C1333.25,-246.17 1324.78,-241.42 1312.38,-235 1289.38,-223.09 1102.35,-238.98 1079.38,-227 1069.08,-221.63 1060.92,-211.82 1054.99,-202.46"/>
<polygon fill="#999999" stroke="#999999" points="1057.09,-201.21 1051.42,-196.43 1052.88,-203.71 1057.09,-201.21"/>
</g>
<!-- Automation.InternalLinking&#45;&gt;Automation.Frontmatter -->
<g id="edge35" class="edge">
<title>Automation.InternalLinking&#45;&gt;Automation.Frontmatter</title>
<path fill="none" stroke="#999999" d="M1331.38,-260C1333.25,-246.17 1324.7,-241.55 1312.38,-235 1284.67,-220.26 1199.89,-240.13 1171.38,-227 1159.46,-221.51 1149.06,-211.43 1141.17,-201.92"/>
<polygon fill="#999999" stroke="#999999" points="1143.09,-200.4 1136.83,-196.42 1139.25,-203.43 1143.09,-200.4"/>
</g>
<!-- Automation.InternalLinking&#45;&gt;Automation.BlogPrompt -->
<g id="edge34" class="edge">
<title>Automation.InternalLinking&#45;&gt;Automation.BlogPrompt</title>
<path fill="none" stroke="#999999" d="M1053.56,-320.73C1048.81,-319.63 1044.02,-318.68 1039.38,-318 1017.42,-314.79 260.75,-318.81 240.38,-310 228.16,-304.71 217.62,-294.44 209.71,-284.76"/>
<polygon fill="#999999" stroke="#999999" points="211.6,-283.19 205.38,-279.16 207.73,-286.19 211.6,-283.19"/>
</g>
<!-- Automation.InternalLinking&#45;&gt;Automation.Gemini -->
<g id="edge36" class="edge">
<title>Automation.InternalLinking&#45;&gt;Automation.Gemini</title>
<path fill="none" stroke="#999999" d="M1094.83,-317.7C1092.89,-308.25 1090.45,-296.39 1088.32,-286.05"/>
<polygon fill="#999999" stroke="#999999" points="1090.72,-285.54 1086.91,-279.18 1085.92,-286.53 1090.72,-285.54"/>
</g>
<!-- Automation.InternalLinking&#45;&gt;Automation.Reflection -->
<g id="edge38" class="edge">
<title>Automation.InternalLinking&#45;&gt;Automation.Reflection</title>
<path fill="none" stroke="#999999" d="M1113.31,-317.7C1121.86,-307.79 1132.69,-295.24 1141.91,-284.56"/>
<polygon fill="#999999" stroke="#999999" points="1143.84,-286.08 1146.56,-279.18 1140.13,-282.87 1143.84,-286.08"/>
</g>
<!-- Automation.DailyReflection -->
<g id="node28" class="node">
<title>Automation.DailyReflection</title>
<path fill="#e1bee7" stroke="black" d="M1290.88,-279C1290.88,-279 1223.88,-279 1223.88,-279 1217.88,-279 1211.88,-273 1211.88,-267 1211.88,-267 1211.88,-255 1211.88,-255 1211.88,-249 1217.88,-243 1223.88,-243 1223.88,-243 1290.88,-243 1290.88,-243 1296.88,-243 1302.88,-249 1302.88,-255 1302.88,-255 1302.88,-267 1302.88,-267 1302.88,-273 1296.88,-279 1290.88,-279"/>
<text text-anchor="middle" x="1257.38" y="-258.5" font-family="Helvetica,sans-Serif" font-size="10.00">DailyReflection</text>
</g>
<!-- Automation.DailyReflection&#45;&gt;Automation.Types -->
<g id="edge23" class="edge">
<title>Automation.DailyReflection&#45;&gt;Automation.Types</title>
<path fill="none" stroke="#999999" d="M1298.42,-242.9C1354.01,-219.67 1446.29,-180.77 1445.38,-179"/>
</g>
<!-- Automation.DailyReflection&#45;&gt;Automation.Frontmatter -->
<g id="edge22" class="edge">
<title>Automation.DailyReflection&#45;&gt;Automation.Frontmatter</title>
<path fill="none" stroke="#999999" d="M1222.93,-242.88C1216.52,-240.03 1209.81,-237.27 1203.38,-235 1189.56,-230.12 1184.06,-234.36 1171.38,-227 1160.3,-220.57 1150.19,-210.7 1142.28,-201.57"/>
<polygon fill="#999999" stroke="#999999" points="1144.02,-199.83 1137.65,-196.02 1140.25,-202.97 1144.02,-199.83"/>
</g>
<!-- Automation.DailyReflection&#45;&gt;Automation.BlogSeriesConfig -->
<g id="edge21" class="edge">
<title>Automation.DailyReflection&#45;&gt;Automation.BlogSeriesConfig</title>
<path fill="none" stroke="#999999" d="M1226.48,-242.99C1219.12,-239.71 1211.14,-236.75 1203.38,-235 1120.03,-216.19 518.87,-239.78 434.38,-227 397.11,-221.36 356.45,-209.19 325.31,-198.51"/>
<polygon fill="#999999" stroke="#999999" points="325.83,-196.1 318.41,-196.12 324.22,-200.73 325.83,-196.1"/>
</g>
<!-- Automation.DailyUpdates&#45;&gt;Automation.Types -->
<g id="edge26" class="edge">
<title>Automation.DailyUpdates&#45;&gt;Automation.Types</title>
<path fill="none" stroke="#999999" d="M1445.38,-260C1424.31,-230.81 1461.78,-211.05 1445.38,-179"/>
</g>
<!-- Automation.DailyUpdates&#45;&gt;Automation.Frontmatter -->
<g id="edge25" class="edge">
<title>Automation.DailyUpdates&#45;&gt;Automation.Frontmatter</title>
<path fill="none" stroke="#999999" d="M1458.69,-317.72C1459,-301.8 1457.11,-278.24 1445.38,-262"/>
<path fill="none" stroke="#999999" d="M1445.38,-260C1432.66,-242.39 1424.23,-241.12 1403.38,-235 1378.64,-227.73 1194.93,-237.53 1171.38,-227 1159.23,-221.56 1148.69,-211.28 1140.77,-201.62"/>
<polygon fill="#999999" stroke="#999999" points="1142.66,-200.06 1136.43,-196.05 1138.8,-203.07 1142.66,-200.06"/>
</g>
<!-- Automation.DailyUpdates&#45;&gt;Automation.DailyReflection -->
<g id="edge24" class="edge">
<title>Automation.DailyUpdates&#45;&gt;Automation.DailyReflection</title>
<path fill="none" stroke="#999999" d="M1415.85,-320.28C1412.67,-319.42 1409.49,-318.65 1406.38,-318 1367.51,-309.89 1354.23,-324.81 1317.38,-310 1303.05,-304.24 1289.4,-293.87 1278.76,-284.23"/>
<polygon fill="#999999" stroke="#999999" points="1280.26,-282.29 1273.48,-279.29 1276.92,-285.86 1280.26,-282.29"/>
</g>
<!-- Automation.AiFiction -->
<g id="node31" class="node">
<title>Automation.AiFiction</title>
<path fill="#e1bee7" stroke="black" d="M1767.88,-354C1767.88,-354 1732.88,-354 1732.88,-354 1726.88,-354 1720.88,-348 1720.88,-342 1720.88,-342 1720.88,-330 1720.88,-330 1720.88,-324 1726.88,-318 1732.88,-318 1732.88,-318 1767.88,-318 1767.88,-318 1773.88,-318 1779.88,-324 1779.88,-330 1779.88,-330 1779.88,-342 1779.88,-342 1779.88,-348 1773.88,-354 1767.88,-354"/>
<text text-anchor="middle" x="1750.38" y="-333.5" font-family="Helvetica,sans-Serif" font-size="10.00">AiFiction</text>
</g>
<!-- Automation.AiFiction&#45;&gt;Automation.Types -->
<g id="edge3" class="edge">
<title>Automation.AiFiction&#45;&gt;Automation.Types</title>
<path fill="none" stroke="#999999" d="M1720.72,-319.36C1717.22,-316.6 1713.98,-313.48 1711.38,-310 1698.07,-292.21 1711.46,-279.19 1697.38,-262"/>
</g>
<!-- Automation.ReflectionTitle -->
<g id="node32" class="node">
<title>Automation.ReflectionTitle</title>
<path fill="#e1bee7" stroke="black" d="M1591.88,-354C1591.88,-354 1528.88,-354 1528.88,-354 1522.88,-354 1516.88,-348 1516.88,-342 1516.88,-342 1516.88,-330 1516.88,-330 1516.88,-324 1522.88,-318 1528.88,-318 1528.88,-318 1591.88,-318 1591.88,-318 1597.88,-318 1603.88,-324 1603.88,-330 1603.88,-330 1603.88,-342 1603.88,-342 1603.88,-348 1597.88,-354 1591.88,-354"/>
<text text-anchor="middle" x="1560.38" y="-333.5" font-family="Helvetica,sans-Serif" font-size="10.00">ReflectionTitle</text>
</g>
<!-- Automation.ReflectionTitle&#45;&gt;Automation.Types -->
<g id="edge56" class="edge">
<title>Automation.ReflectionTitle&#45;&gt;Automation.Types</title>
<path fill="none" stroke="#999999" d="M1483.38,-260C1450.22,-238.06 1462.99,-214.65 1445.38,-179"/>
</g>
<!-- Automation.ReflectionTitle&#45;&gt;Automation.Frontmatter -->
<g id="edge55" class="edge">
<title>Automation.ReflectionTitle&#45;&gt;Automation.Frontmatter</title>
<path fill="none" stroke="#999999" d="M1545.56,-317.85C1531,-301.8 1507.5,-277.96 1483.38,-262"/>
<path fill="none" stroke="#999999" d="M1483.38,-260C1470.54,-251.5 1473.47,-241.24 1459.38,-235 1430.11,-222.04 1200.65,-239.97 1171.38,-227 1159.21,-221.6 1148.67,-211.32 1140.76,-201.66"/>
<polygon fill="#999999" stroke="#999999" points="1142.65,-200.1 1136.41,-196.08 1138.78,-203.11 1142.65,-200.1"/>
</g>
<!-- Automation.ObsidianSync&#45;&gt;Automation.Secret -->
<g id="edge40" class="edge">
<title>Automation.ObsidianSync&#45;&gt;Automation.Secret</title>
<path fill="none" stroke="#999999" d="M1821.72,-317.91C1798.24,-296.01 1754.66,-258.12 1711.38,-235 1475.73,-109.1 1151.89,-54.66 1046.81,-39.59"/>
<polygon fill="#999999" stroke="#999999" points="1046.9,-37.13 1039.62,-38.57 1046.21,-41.98 1046.9,-37.13"/>
</g>
<!-- Automation.StaticGiscus -->
<g id="node34" class="node">
<title>Automation.StaticGiscus</title>
<path fill="#e1bee7" stroke="black" d="M1308.88,-354C1308.88,-354 1255.88,-354 1255.88,-354 1249.88,-354 1243.88,-348 1243.88,-342 1243.88,-342 1243.88,-330 1243.88,-330 1243.88,-324 1249.88,-318 1255.88,-318 1255.88,-318 1308.88,-318 1308.88,-318 1314.88,-318 1320.88,-324 1320.88,-330 1320.88,-330 1320.88,-342 1320.88,-342 1320.88,-348 1314.88,-354 1308.88,-354"/>
<text text-anchor="middle" x="1282.38" y="-333.5" font-family="Helvetica,sans-Serif" font-size="10.00">StaticGiscus</text>
</g>
<!-- Automation.StaticGiscus&#45;&gt;Automation.Json -->
<g id="edge73" class="edge">
<title>Automation.StaticGiscus&#45;&gt;Automation.Json</title>
<path fill="none" stroke="#999999" d="M1369.38,-260C1365.68,-245.05 1359.46,-241.25 1345.38,-235 1318.36,-223 1105.63,-240.62 1079.38,-227 1069.07,-221.65 1060.91,-211.84 1054.98,-202.49"/>
<polygon fill="#999999" stroke="#999999" points="1057.08,-201.23 1051.41,-196.45 1052.87,-203.72 1057.08,-201.23"/>
</g>
<!-- Automation.StaticGiscus&#45;&gt;Automation.Html -->
<g id="edge72" class="edge">
<title>Automation.StaticGiscus&#45;&gt;Automation.Html</title>
<path fill="none" stroke="#999999" d="M1320.95,-320.95C1332.72,-316.41 1343.17,-312.03 1345.38,-310 1362.96,-293.87 1375.12,-285.15 1369.38,-262"/>
<path fill="none" stroke="#999999" d="M1369.38,-260C1365.68,-245.05 1359.48,-241.21 1345.38,-235 1311,-219.86 1040.78,-244.2 1007.38,-227 997.05,-221.68 988.89,-211.88 982.96,-202.52"/>
<polygon fill="#999999" stroke="#999999" points="985.07,-201.26 979.4,-196.48 980.85,-203.75 985.07,-201.26"/>
</g>
<!-- Main -->
<g id="node35" class="node">
<title>Main</title>
<path fill="#ffcc80" stroke="black" stroke-width="2" d="M1165.38,-429C1165.38,-429 1103.38,-429 1103.38,-429 1097.38,-429 1091.38,-423 1091.38,-417 1091.38,-417 1091.38,-405 1091.38,-405 1091.38,-399 1097.38,-393 1103.38,-393 1103.38,-393 1165.38,-393 1165.38,-393 1171.38,-393 1177.38,-399 1177.38,-405 1177.38,-405 1177.38,-417 1177.38,-417 1177.38,-423 1171.38,-429 1165.38,-429"/>
<text text-anchor="middle" x="1134.38" y="-414" font-family="Helvetica,sans-Serif" font-size="10.00">RunScheduled</text>
<text text-anchor="middle" x="1134.38" y="-403" font-family="Helvetica,sans-Serif" font-size="10.00">(Main)</text>
</g>
<!-- Main&#45;&gt;Automation.Types -->
<g id="edge93" class="edge">
<title>Main&#45;&gt;Automation.Types</title>
<path fill="none" stroke="#999999" d="M1177.57,-400.06C1191.77,-397.22 1207.68,-394.5 1222.38,-393 1231.66,-392.06 1886.83,-391.63 1893.38,-385 2051.59,-224.89 1458.43,-205.41 1445.38,-179"/>
</g>
<!-- Main&#45;&gt;Automation.Text -->
<g id="edge92" class="edge">
<title>Main&#45;&gt;Automation.Text</title>
<path fill="none" stroke="#999999" d="M1091.3,-406.87C1074.25,-403.62 1055.61,-397.27 1042.38,-385 1025.79,-369.61 1026.74,-359.59 1025.38,-337"/>
<path fill="none" stroke="#999999" d="M1025.38,-335C1022.67,-290 1008.85,-265.14 1042.38,-235 1063.74,-215.8 1146.1,-240.63 1171.38,-227 1181.51,-221.54 1189.61,-211.85 1195.53,-202.6"/>
<polygon fill="#999999" stroke="#999999" points="1197.8,-203.58 1199.29,-196.32 1193.59,-201.07 1197.8,-203.58"/>
</g>
<!-- Main&#45;&gt;Automation.BlogPrompt -->
<g id="edge81" class="edge">
<title>Main&#45;&gt;Automation.BlogPrompt</title>
<path fill="none" stroke="#999999" d="M139.38,-335C134.59,-324.31 153.64,-301.65 170.61,-284.39"/>
<polygon fill="#999999" stroke="#999999" points="172.56,-285.91 175.79,-279.23 169.1,-282.44 172.56,-285.91"/>
</g>
<!-- Main&#45;&gt;Automation.BlogSeries -->
<g id="edge82" class="edge">
<title>Main&#45;&gt;Automation.BlogSeries</title>
<path fill="none" stroke="#999999" d="M1091.25,-409.72C918.52,-408.48 284.18,-402.72 245.38,-385 233.63,-379.63 223.6,-369.49 216.1,-359.91"/>
<polygon fill="#999999" stroke="#999999" points="217.9,-358.22 211.77,-354.06 213.97,-361.14 217.9,-358.22"/>
</g>
<!-- Main&#45;&gt;Automation.BlogPosts -->
<g id="edge80" class="edge">
<title>Main&#45;&gt;Automation.BlogPosts</title>
<path fill="none" stroke="#999999" d="M109.38,-260C110.4,-252.92 135.06,-223.14 153.47,-201.74"/>
<polygon fill="#999999" stroke="#999999" points="155.51,-203.13 158.23,-196.23 151.8,-199.93 155.51,-203.13"/>
</g>
<!-- Main&#45;&gt;Automation.BlogComments -->
<g id="edge78" class="edge">
<title>Main&#45;&gt;Automation.BlogComments</title>
<path fill="none" stroke="#999999" d="M1091.22,-410.21C907.37,-410.95 197.07,-412.03 158.38,-385 139.57,-371.86 148.77,-357.94 139.38,-337"/>
<path fill="none" stroke="#999999" d="M139.38,-335C125.03,-302.99 104.42,-296.72 109.38,-262"/>
<path fill="none" stroke="#999999" d="M109.38,-260C112.3,-239.56 102.81,-217.99 93.27,-202.25"/>
<polygon fill="#999999" stroke="#999999" points="95.32,-200.9 89.5,-196.3 91.18,-203.53 95.32,-200.9"/>
</g>
<!-- Main&#45;&gt;Automation.BlogSeriesConfig -->
<g id="edge83" class="edge">
<title>Main&#45;&gt;Automation.BlogSeriesConfig</title>
<path fill="none" stroke="#999999" d="M109.38,-260C116.36,-211.15 169.83,-245.95 215.38,-227 229.36,-221.18 242.56,-210.81 252.83,-201.19"/>
<polygon fill="#999999" stroke="#999999" points="254.6,-202.88 257.92,-196.25 251.19,-199.36 254.6,-202.88"/>
</g>
<!-- Main&#45;&gt;Automation.BlogImage -->
<g id="edge79" class="edge">
<title>Main&#45;&gt;Automation.BlogImage</title>
<path fill="none" stroke="#999999" d="M1091.32,-409.54C930.17,-407.71 370.17,-400.27 335.38,-385 323.06,-379.59 312.3,-369.31 304.2,-359.65"/>
<polygon fill="#999999" stroke="#999999" points="306.02,-358.01 299.74,-354.07 302.2,-361.07 306.02,-358.01"/>
</g>
<!-- Main&#45;&gt;Automation.AiBlogLinks -->
<g id="edge76" class="edge">
<title>Main&#45;&gt;Automation.AiBlogLinks</title>
<path fill="none" stroke="#999999" d="M139.38,-335C134.75,-324.66 148.01,-322.55 158.38,-318 191.91,-303.28 207.44,-325.99 240.38,-310 252.08,-304.32 262.38,-294.35 270.26,-284.96"/>
<polygon fill="#999999" stroke="#999999" points="272.38,-286.23 274.84,-279.23 268.56,-283.17 272.38,-286.23"/>
</g>
<!-- Main&#45;&gt;Automation.SocialPosting -->
<g id="edge91" class="edge">
<title>Main&#45;&gt;Automation.SocialPosting</title>
<path fill="none" stroke="#999999" d="M1091.19,-404.69C983.16,-391.42 701.89,-356.85 588.65,-342.93"/>
<polygon fill="#999999" stroke="#999999" points="588.69,-340.47 581.44,-342.05 588.09,-345.33 588.69,-340.47"/>
</g>
<!-- Main&#45;&gt;Automation.Gemini -->
<g id="edge86" class="edge">
<title>Main&#45;&gt;Automation.Gemini</title>
<path fill="none" stroke="#999999" d="M1025.38,-335C1025.19,-331.82 1047.11,-305.02 1064.05,-284.8"/>
<polygon fill="#999999" stroke="#999999" points="1066.05,-286.23 1068.68,-279.3 1062.3,-283.08 1066.05,-286.23"/>
</g>
<!-- Main&#45;&gt;Automation.Scheduler -->
<g id="edge90" class="edge">
<title>Main&#45;&gt;Automation.Scheduler</title>
<path fill="none" stroke="#999999" d="M1148.37,-392.7C1156.3,-382.88 1166.33,-370.47 1174.91,-359.86"/>
<polygon fill="#999999" stroke="#999999" points="1177.01,-361.16 1179.5,-354.18 1173.2,-358.08 1177.01,-361.16"/>
</g>
<!-- Main&#45;&gt;Automation.InternalLinking -->
<g id="edge87" class="edge">
<title>Main&#45;&gt;Automation.InternalLinking</title>
<path fill="none" stroke="#999999" d="M1125.85,-392.7C1121.14,-383.15 1115.23,-371.16 1110.09,-360.75"/>
<polygon fill="#999999" stroke="#999999" points="1112.15,-359.37 1106.85,-354.18 1107.75,-361.54 1112.15,-359.37"/>
</g>
<!-- Main&#45;&gt;Automation.DailyReflection -->
<g id="edge84" class="edge">
<title>Main&#45;&gt;Automation.DailyReflection</title>
<path fill="none" stroke="#999999" d="M1025.38,-335C1024.74,-324.33 1032.62,-322.33 1042.38,-318 1075.13,-303.47 1170.23,-323.56 1203.38,-310 1216.9,-304.47 1229.29,-294.04 1238.79,-284.31"/>
<polygon fill="#999999" stroke="#999999" points="1240.75,-285.8 1243.75,-279.02 1237.18,-282.45 1240.75,-285.8"/>
</g>
<!-- Main&#45;&gt;Automation.DailyUpdates -->
<g id="edge85" class="edge">
<title>Main&#45;&gt;Automation.DailyUpdates</title>
<path fill="none" stroke="#999999" d="M1177.6,-400.34C1191.8,-397.51 1207.7,-394.73 1222.38,-393 1242.71,-390.61 1387.53,-392.96 1406.38,-385 1419.43,-379.5 1431.16,-369.07 1440.07,-359.34"/>
<polygon fill="#999999" stroke="#999999" points="1441.94,-360.91 1444.72,-354.04 1438.26,-357.68 1441.94,-360.91"/>
</g>
<!-- Main&#45;&gt;Automation.AiFiction -->
<g id="edge77" class="edge">
<title>Main&#45;&gt;Automation.AiFiction</title>
<path fill="none" stroke="#999999" d="M1177.58,-400.1C1191.77,-397.26 1207.68,-394.53 1222.38,-393 1249.46,-390.19 1687.97,-397.06 1712.38,-385 1723.17,-379.67 1731.85,-369.67 1738.17,-360.17"/>
<polygon fill="#999999" stroke="#999999" points="1740.36,-361.29 1741.99,-354.05 1736.2,-358.7 1740.36,-361.29"/>
</g>
<!-- Main&#45;&gt;Automation.ReflectionTitle -->
<g id="edge89" class="edge">
<title>Main&#45;&gt;Automation.ReflectionTitle</title>
<path fill="none" stroke="#999999" d="M1177.59,-400.2C1191.78,-397.37 1207.69,-394.61 1222.38,-393 1253.98,-389.53 1478.94,-396.99 1508.38,-385 1521.63,-379.61 1533.59,-369.19 1542.68,-359.43"/>
<polygon fill="#999999" stroke="#999999" points="1544.59,-360.97 1547.43,-354.12 1540.94,-357.7 1544.59,-360.97"/>
</g>
<!-- Main&#45;&gt;Automation.ObsidianSync -->
<g id="edge88" class="edge">
<title>Main&#45;&gt;Automation.ObsidianSync</title>
<path fill="none" stroke="#999999" d="M1177.57,-400.08C1191.77,-397.24 1207.68,-394.51 1222.38,-393 1253.72,-389.78 1760.24,-396.96 1789.38,-385 1802.22,-379.73 1813.65,-369.46 1822.32,-359.77"/>
<polygon fill="#999999" stroke="#999999" points="1824.42,-361.09 1827.1,-354.17 1820.69,-357.91 1824.42,-361.09"/>
</g>
<!-- Main.InjectGiscus -->
<g id="node36" class="node">
<title>Main.InjectGiscus</title>
<path fill="#f0f0f0" stroke="black" d="M1321.88,-429C1321.88,-429 1242.88,-429 1242.88,-429 1236.88,-429 1230.88,-423 1230.88,-417 1230.88,-417 1230.88,-405 1230.88,-405 1230.88,-399 1236.88,-393 1242.88,-393 1242.88,-393 1321.88,-393 1321.88,-393 1327.88,-393 1333.88,-399 1333.88,-405 1333.88,-405 1333.88,-417 1333.88,-417 1333.88,-423 1327.88,-429 1321.88,-429"/>
<text text-anchor="middle" x="1282.38" y="-408.5" font-family="Helvetica,sans-Serif" font-size="10.00">Main.InjectGiscus</text>
</g>
<!-- Main.InjectGiscus&#45;&gt;Automation.StaticGiscus -->
<g id="edge94" class="edge">
<title>Main.InjectGiscus&#45;&gt;Automation.StaticGiscus</title>
<path fill="none" stroke="#999999" d="M1282.38,-392.7C1282.38,-383.34 1282.38,-371.62 1282.38,-361.34"/>
<polygon fill="#999999" stroke="#999999" points="1284.83,-361.18 1282.38,-354.18 1279.93,-361.18 1284.83,-361.18"/>
</g>
</g>
</svg>
